<svg id="Layer_1" data-name="Layer 1" xmlns="http://www.w3.org/2000/svg" width="60" height="60" viewBox="0 0 60 60"><title>logo</title><path d="M41.58,43.51a2.89,2.89,0,0,1-2.89-2.9,1,1,0,1,0-1.93,0,2.9,2.9,0,0,1-2.9,2.9,1,1,0,0,0,0,1.93,2.89,2.89,0,0,1,2.9,2.89,1,1,0,1,0,1.93,0,2.89,2.89,0,0,1,2.89-2.89,1,1,0,1,0,0-1.93Zm-3.86,1.93a4.9,4.9,0,0,0-1-1,4.85,4.85,0,0,0,1-1,4.9,4.9,0,0,0,1,1A5,5,0,0,0,37.72,45.44Z" style="fill:#fff"/><path d="M29,51.23a2.9,2.9,0,0,1-2.89-2.9,1,1,0,0,0-1.93,0,2.9,2.9,0,0,1-2.9,2.9,1,1,0,0,0,0,1.93,2.89,2.89,0,0,1,2.9,2.89,1,1,0,1,0,1.93,0A2.89,2.89,0,0,1,29,53.16a1,1,0,1,0,0-1.93Zm-3.86,1.93a4.9,4.9,0,0,0-1-1,4.85,4.85,0,0,0,1-1,4.9,4.9,0,0,0,1,1A5,5,0,0,0,25.17,53.16Z" style="fill:#fff"/><rect x="24.21" y="34.82" width="1.93" height="1.93" style="fill:#fff"/><rect x="24.21" y="38.68" width="1.93" height="1.93" style="fill:#fff"/><rect x="22.28" y="36.75" width="1.93" height="1.93" style="fill:#fff"/><rect x="26.14" y="36.75" width="1.93" height="1.93" style="fill:#fff"/><path d="M42.55,10.69V1H40.62V8.76H38.69V5.86H21.31v2.9H19.38V1H17.45v9.65h3.86v7.72H19.38v7.72H40.62V18.41H38.69V10.69ZM38.69,24.2H21.31V20.34H38.69ZM23.24,18.41V7.79H36.76V18.41Z" style="fill:#fff"/><path d="M20.85,28.2a1,1,0,0,0-1.33.33l-17.37,29a1,1,0,1,0,1.63,1l0,0,17.38-29A1,1,0,0,0,20.85,28.2Z" style="fill:#fff"/><path d="M40.48,28.53a1,1,0,0,0-1.32-.35,1,1,0,0,0-.35,1.31v0l17.38,29a1,1,0,0,0,1.67-1l0,0Z" style="fill:#fff"/></svg>